<svg xmlns="http://www.w3.org/2000/svg" viewBox="0 0 1181 1362" role="img" aria-label="SZ logo">
  <path fill="#d8dde0" fill-rule="evenodd" d="M 569 937 L 558 941 L 559 942 L 560 940 L 561 944 L 551 954 L 551 957 L 535 972 L 531 979 L 513 994 L 500 1008 L 497 1008 L 478 1026 L 473 1028 L 468 1034 L 463 1036 L 452 1046 L 435 1056 L 432 1060 L 429 1060 L 423 1066 L 420 1065 L 421 1067 L 417 1070 L 417 1078 L 414 1081 L 414 1084 L 418 1083 L 423 1089 L 430 1090 L 428 1092 L 431 1093 L 432 1089 L 444 1083 L 451 1075 L 455 1076 L 454 1074 L 461 1067 L 476 1057 L 480 1051 L 492 1043 L 501 1033 L 505 1033 L 508 1026 L 520 1014 L 518 1012 L 523 1007 L 526 1007 L 544 987 L 546 982 L 556 971 L 556 968 L 560 965 L 560 962 L 566 953 L 571 952 L 571 941 Z M 600 939 L 605 941 L 605 947 L 613 958 L 610 966 L 614 961 L 618 964 L 617 967 L 625 976 L 624 978 L 629 978 L 629 982 L 639 994 L 638 998 L 640 997 L 697 1055 L 700 1053 L 701 1057 L 703 1058 L 702 1060 L 704 1059 L 710 1063 L 718 1071 L 720 1069 L 721 1073 L 727 1077 L 728 1080 L 730 1079 L 739 1086 L 736 1088 L 741 1087 L 743 1090 L 744 1087 L 746 1089 L 759 1090 L 756 1088 L 762 1085 L 762 1072 L 752 1062 L 749 1062 L 746 1058 L 743 1058 L 732 1048 L 729 1048 L 712 1034 L 707 1032 L 704 1028 L 699 1026 L 694 1020 L 689 1018 L 668 998 L 659 992 L 657 988 L 655 989 L 654 986 L 640 973 L 640 970 L 626 957 L 626 954 L 618 946 L 619 941 L 617 943 L 609 934 L 606 934 L 604 939 Z M 593 930 L 590 930 L 589 933 L 583 937 L 583 941 L 581 943 L 581 951 L 579 952 L 579 976 L 577 980 L 577 1004 L 575 1006 L 575 1015 L 572 1018 L 570 1017 L 571 1023 L 568 1028 L 566 1025 L 567 1030 L 565 1035 L 561 1038 L 560 1042 L 558 1039 L 559 1043 L 557 1044 L 557 1047 L 551 1052 L 551 1055 L 545 1060 L 545 1063 L 537 1070 L 537 1073 L 524 1086 L 522 1085 L 523 1087 L 519 1093 L 508 1104 L 506 1103 L 502 1107 L 503 1109 L 488 1124 L 483 1126 L 472 1138 L 469 1139 L 467 1145 L 469 1151 L 478 1159 L 481 1157 L 486 1157 L 487 1155 L 489 1156 L 507 1139 L 510 1139 L 536 1113 L 538 1108 L 544 1103 L 552 1090 L 560 1083 L 560 1080 L 564 1077 L 572 1062 L 575 1059 L 577 1060 L 576 1064 L 579 1066 L 578 1088 L 576 1089 L 577 1129 L 575 1131 L 575 1139 L 573 1140 L 569 1151 L 565 1154 L 565 1157 L 558 1164 L 556 1163 L 557 1165 L 553 1171 L 542 1182 L 540 1181 L 541 1183 L 538 1186 L 536 1185 L 534 1187 L 535 1189 L 517 1206 L 515 1210 L 515 1217 L 517 1218 L 517 1221 L 521 1223 L 531 1223 L 540 1217 L 543 1211 L 545 1213 L 550 1209 L 554 1202 L 559 1199 L 560 1196 L 570 1186 L 568 1184 L 572 1183 L 576 1179 L 576 1176 L 578 1176 L 579 1182 L 577 1186 L 579 1189 L 576 1191 L 577 1205 L 575 1207 L 575 1217 L 573 1219 L 571 1237 L 569 1239 L 569 1279 L 571 1281 L 571 1288 L 573 1290 L 577 1305 L 579 1306 L 579 1309 L 583 1309 L 585 1312 L 583 1315 L 588 1321 L 594 1317 L 594 1314 L 596 1313 L 596 1310 L 598 1309 L 598 1306 L 602 1300 L 602 1296 L 604 1295 L 606 1282 L 608 1280 L 608 1263 L 610 1261 L 608 1254 L 608 1241 L 606 1238 L 606 1227 L 604 1225 L 604 1217 L 602 1215 L 602 1203 L 600 1201 L 600 1190 L 598 1188 L 598 1183 L 602 1182 L 604 1186 L 606 1185 L 621 1203 L 631 1212 L 630 1214 L 632 1213 L 647 1223 L 656 1223 L 660 1221 L 663 1213 L 665 1212 L 664 1211 L 663 1213 L 660 1204 L 651 1198 L 624 1171 L 622 1166 L 614 1159 L 615 1155 L 613 1156 L 606 1151 L 608 1148 L 602 1139 L 600 1124 L 596 1120 L 600 1113 L 600 1064 L 604 1063 L 607 1066 L 606 1072 L 608 1069 L 613 1074 L 615 1078 L 614 1080 L 616 1079 L 619 1082 L 621 1087 L 631 1098 L 630 1102 L 632 1101 L 643 1113 L 647 1114 L 645 1116 L 650 1119 L 653 1125 L 672 1142 L 672 1145 L 674 1144 L 685 1153 L 688 1153 L 688 1156 L 701 1157 L 707 1152 L 709 1154 L 707 1152 L 710 1149 L 711 1142 L 709 1142 L 708 1138 L 698 1129 L 699 1127 L 697 1128 L 696 1126 L 690 1124 L 686 1118 L 644 1077 L 644 1074 L 630 1059 L 630 1056 L 624 1051 L 624 1048 L 620 1045 L 608 1027 L 607 1021 L 604 1019 L 604 1012 L 600 1012 L 600 1009 L 602 1008 L 602 1004 L 600 1002 L 600 961 L 598 958 L 598 940 L 594 935 L 595 933 Z M 827 888 L 825 890 L 825 910 L 827 912 L 827 920 L 830 926 L 829 933 L 831 934 L 831 948 L 833 950 L 833 962 L 835 964 L 836 986 L 832 986 L 834 988 L 836 986 L 837 987 L 836 1010 L 839 1011 L 839 1019 L 845 1028 L 855 1033 L 864 1025 L 864 1021 L 866 1019 L 864 1014 L 864 994 L 862 992 L 860 969 L 858 967 L 858 959 L 856 957 L 856 949 L 852 940 L 852 934 L 850 932 L 848 920 L 846 919 L 846 914 L 844 913 L 844 908 L 842 906 L 843 901 L 840 901 L 840 898 L 838 897 L 838 894 L 834 888 Z M 358 888 L 350 888 L 344 891 L 345 892 L 346 890 L 347 893 L 341 899 L 341 905 L 339 906 L 337 915 L 334 915 L 335 921 L 327 942 L 325 957 L 321 967 L 321 975 L 319 976 L 317 1000 L 315 1003 L 315 1023 L 321 1033 L 332 1033 L 340 1018 L 340 1006 L 342 1004 L 342 994 L 344 992 L 344 973 L 346 971 L 346 962 L 348 961 L 352 924 L 354 922 L 356 904 L 358 902 Z M 1047 804 L 1041 804 L 1038 802 L 1032 806 L 1021 808 L 1012 814 L 1001 816 L 995 820 L 982 822 L 960 830 L 952 830 L 943 834 L 924 836 L 922 838 L 897 840 L 895 838 L 877 836 L 877 833 L 874 835 L 866 833 L 865 844 L 867 846 L 866 848 L 868 848 L 870 852 L 868 854 L 870 856 L 870 852 L 873 854 L 875 862 L 883 872 L 887 885 L 893 894 L 893 899 L 895 900 L 895 905 L 897 906 L 899 917 L 901 918 L 901 923 L 903 925 L 903 931 L 900 932 L 905 934 L 909 954 L 913 963 L 913 970 L 915 972 L 914 982 L 917 983 L 917 987 L 919 989 L 919 999 L 921 1000 L 923 1009 L 929 1015 L 934 1017 L 939 1017 L 941 1015 L 945 1016 L 944 1014 L 946 1011 L 944 1011 L 944 1008 L 948 1008 L 948 1003 L 946 1001 L 944 985 L 940 983 L 942 976 L 940 975 L 940 970 L 938 969 L 930 936 L 928 935 L 928 930 L 926 929 L 926 924 L 924 923 L 924 917 L 920 911 L 918 902 L 916 901 L 912 884 L 910 883 L 912 881 L 921 887 L 925 887 L 938 897 L 940 895 L 941 899 L 953 907 L 958 907 L 959 911 L 963 914 L 960 916 L 964 915 L 973 923 L 981 936 L 981 940 L 985 946 L 985 949 L 987 950 L 987 953 L 989 954 L 989 959 L 991 960 L 993 970 L 997 976 L 996 982 L 999 982 L 1001 991 L 1007 996 L 1008 999 L 1017 1000 L 1019 997 L 1024 995 L 1024 982 L 1022 980 L 1020 969 L 1014 954 L 1008 945 L 1007 940 L 1009 939 L 1042 961 L 1044 966 L 1046 965 L 1065 982 L 1064 984 L 1067 983 L 1083 993 L 1094 997 L 1100 997 L 1101 999 L 1108 999 L 1109 1001 L 1122 1001 L 1132 1005 L 1136 1001 L 1136 996 L 1130 993 L 1132 990 L 1126 987 L 1128 985 L 1118 975 L 1118 972 L 1108 962 L 1103 960 L 1098 955 L 1099 953 L 1095 954 L 1083 945 L 1081 946 L 1080 944 L 1077 944 L 1071 940 L 1061 938 L 1054 934 L 1047 934 L 1046 932 L 1037 930 L 1036 928 L 1031 928 L 1026 924 L 1017 922 L 1015 917 L 1014 920 L 1010 917 L 1012 915 L 1022 914 L 1023 918 L 1029 916 L 1026 915 L 1026 913 L 1033 913 L 1035 911 L 1054 907 L 1055 905 L 1068 901 L 1080 890 L 1073 882 L 1058 882 L 1051 886 L 1043 886 L 1042 888 L 1026 890 L 1015 894 L 1000 894 L 997 896 L 991 896 L 990 894 L 983 894 L 982 892 L 977 892 L 976 890 L 962 886 L 948 876 L 937 872 L 930 866 L 926 866 L 926 864 L 929 864 L 927 861 L 925 865 L 920 863 L 922 859 L 936 859 L 938 857 L 942 857 L 943 855 L 966 853 L 968 849 L 970 851 L 974 851 L 983 847 L 992 847 L 993 845 L 997 846 L 1000 843 L 1006 843 L 1007 841 L 1014 841 L 1015 839 L 1020 839 L 1021 837 L 1027 838 L 1027 835 L 1046 827 L 1054 818 L 1054 811 Z M 128 803 L 126 805 L 127 807 L 125 808 L 125 821 L 130 823 L 135 829 L 144 831 L 147 834 L 146 840 L 149 839 L 151 835 L 154 835 L 159 839 L 164 839 L 165 841 L 170 841 L 171 843 L 175 843 L 177 845 L 190 847 L 192 849 L 190 851 L 191 853 L 207 851 L 208 855 L 213 853 L 214 854 L 212 856 L 214 857 L 228 855 L 230 857 L 237 857 L 240 859 L 253 859 L 259 862 L 253 862 L 252 866 L 246 865 L 249 867 L 227 880 L 222 879 L 222 882 L 219 882 L 218 884 L 207 888 L 202 892 L 189 894 L 187 896 L 177 896 L 177 893 L 161 894 L 160 892 L 151 892 L 141 888 L 134 888 L 132 886 L 119 884 L 119 879 L 117 882 L 102 881 L 103 885 L 101 886 L 103 896 L 109 901 L 124 907 L 124 910 L 130 909 L 132 911 L 146 913 L 146 916 L 158 915 L 160 917 L 167 918 L 162 922 L 149 926 L 148 928 L 146 928 L 146 925 L 144 924 L 142 930 L 121 936 L 120 938 L 114 938 L 108 942 L 105 942 L 104 944 L 98 942 L 96 948 L 91 948 L 57 976 L 55 981 L 47 988 L 40 999 L 41 1003 L 59 1003 L 61 1001 L 69 1001 L 71 999 L 85 997 L 96 993 L 97 991 L 108 987 L 111 983 L 114 983 L 133 965 L 135 965 L 137 961 L 142 959 L 151 949 L 169 939 L 171 942 L 168 943 L 169 947 L 167 949 L 167 953 L 162 955 L 165 955 L 165 959 L 163 960 L 163 965 L 161 966 L 161 971 L 159 972 L 157 993 L 163 1001 L 171 1001 L 178 994 L 180 984 L 182 983 L 184 970 L 188 965 L 188 960 L 190 959 L 194 944 L 196 943 L 196 940 L 198 939 L 204 926 L 217 913 L 219 914 L 218 912 L 235 899 L 238 899 L 245 893 L 248 893 L 255 887 L 262 885 L 263 892 L 261 894 L 261 900 L 257 911 L 254 911 L 255 919 L 253 920 L 249 931 L 249 938 L 245 946 L 245 951 L 243 952 L 241 962 L 237 963 L 239 966 L 239 972 L 237 974 L 235 991 L 233 993 L 233 1009 L 235 1010 L 235 1013 L 242 1017 L 249 1016 L 256 1009 L 256 1004 L 258 1003 L 260 983 L 262 981 L 262 974 L 264 973 L 266 958 L 268 957 L 268 952 L 270 950 L 270 943 L 274 937 L 274 931 L 280 917 L 280 912 L 282 911 L 290 887 L 300 870 L 313 857 L 322 851 L 325 852 L 324 849 L 336 839 L 334 827 L 331 825 L 322 825 L 324 829 L 316 834 L 299 836 L 297 838 L 283 838 L 281 840 L 266 840 L 264 838 L 253 838 L 251 836 L 229 834 L 228 832 L 223 832 L 221 830 L 215 830 L 213 828 L 207 828 L 206 826 L 193 824 L 181 819 L 185 817 L 182 817 L 181 819 L 176 816 L 171 816 L 170 814 L 161 812 L 156 808 L 137 801 L 134 804 Z M 259 861 L 261 859 L 264 861 Z M 1020 738 L 1014 730 L 994 729 L 994 732 L 957 748 L 954 752 L 951 752 L 942 758 L 938 758 L 932 762 L 928 761 L 928 764 L 925 764 L 924 766 L 913 770 L 908 774 L 904 774 L 898 778 L 893 778 L 892 780 L 877 784 L 873 788 L 873 793 L 875 795 L 888 795 L 890 793 L 902 793 L 903 791 L 910 791 L 911 789 L 919 789 L 927 786 L 928 788 L 931 788 L 927 786 L 940 783 L 941 781 L 946 781 L 951 777 L 956 777 L 957 775 L 961 775 L 969 771 L 973 771 L 979 767 L 993 763 L 997 759 L 1001 760 L 1000 758 L 1005 755 L 1009 758 L 1008 754 L 1016 749 L 1020 743 Z M 157 736 L 157 743 L 163 750 L 162 752 L 166 751 L 167 753 L 178 757 L 181 761 L 190 763 L 192 769 L 195 766 L 200 769 L 204 769 L 204 772 L 208 771 L 209 773 L 212 773 L 216 777 L 224 777 L 225 779 L 230 779 L 231 781 L 235 781 L 237 783 L 262 789 L 262 792 L 266 789 L 268 791 L 278 791 L 279 793 L 290 793 L 291 795 L 306 795 L 310 798 L 317 797 L 320 793 L 319 788 L 315 788 L 307 784 L 301 784 L 300 782 L 294 782 L 289 780 L 289 777 L 280 778 L 263 770 L 259 770 L 258 768 L 253 768 L 252 766 L 249 766 L 236 758 L 231 758 L 219 750 L 215 750 L 214 748 L 211 748 L 210 746 L 207 746 L 206 744 L 203 744 L 202 742 L 199 742 L 186 734 L 182 734 L 177 729 L 163 730 Z M 864 575 L 865 583 L 867 585 L 882 587 L 884 589 L 916 599 L 921 603 L 929 605 L 935 609 L 938 609 L 939 611 L 942 611 L 943 613 L 946 613 L 947 615 L 950 615 L 951 617 L 954 617 L 957 620 L 956 622 L 960 621 L 961 623 L 968 625 L 975 631 L 992 639 L 993 641 L 1003 643 L 1006 646 L 1011 641 L 1015 642 L 1012 637 L 1016 637 L 1018 631 L 1012 623 L 1013 619 L 1011 622 L 1006 618 L 995 614 L 993 611 L 991 612 L 987 608 L 979 606 L 972 600 L 963 598 L 957 594 L 953 594 L 952 592 L 949 592 L 943 588 L 937 588 L 936 586 L 931 586 L 930 584 L 925 584 L 910 578 L 883 575 L 879 576 L 877 574 L 874 576 Z M 1015 630 L 1017 632 L 1016 635 L 1014 634 Z M 323 577 L 319 575 L 311 576 L 309 574 L 302 574 L 300 576 L 281 576 L 279 578 L 270 578 L 261 582 L 247 584 L 246 586 L 241 586 L 240 588 L 235 588 L 234 590 L 229 590 L 228 592 L 223 592 L 222 594 L 208 598 L 204 602 L 199 602 L 198 604 L 195 604 L 194 606 L 191 606 L 169 618 L 161 626 L 161 635 L 163 636 L 162 640 L 165 639 L 169 643 L 180 643 L 181 641 L 186 641 L 203 629 L 206 629 L 217 621 L 220 621 L 221 619 L 224 619 L 225 617 L 228 617 L 229 615 L 232 615 L 245 607 L 258 603 L 263 599 L 278 595 L 279 593 L 290 591 L 291 589 L 308 587 L 310 585 L 316 585 L 317 583 L 321 584 L 324 582 Z M 605 500 L 600 507 L 603 507 L 603 518 L 600 523 L 601 585 L 608 593 L 614 591 L 618 587 L 618 582 L 620 581 L 624 564 L 626 563 L 626 560 L 630 554 L 641 543 L 643 544 L 642 542 L 647 537 L 652 537 L 655 533 L 660 533 L 661 531 L 666 531 L 667 529 L 672 529 L 672 532 L 675 533 L 675 530 L 680 529 L 681 527 L 711 527 L 716 525 L 718 527 L 724 525 L 763 525 L 766 530 L 769 531 L 752 560 L 750 555 L 751 563 L 749 564 L 747 571 L 741 578 L 739 585 L 729 599 L 729 603 L 721 612 L 717 623 L 705 641 L 699 655 L 693 662 L 693 665 L 689 671 L 686 673 L 687 675 L 677 690 L 673 701 L 667 708 L 665 715 L 659 722 L 659 725 L 654 729 L 655 732 L 649 740 L 649 743 L 646 743 L 647 747 L 645 748 L 643 755 L 635 766 L 627 785 L 619 796 L 617 803 L 611 810 L 607 821 L 601 828 L 597 839 L 593 844 L 591 842 L 589 843 L 591 849 L 587 855 L 587 861 L 591 863 L 596 861 L 602 861 L 604 863 L 608 861 L 829 861 L 832 859 L 835 860 L 843 858 L 840 856 L 842 854 L 842 845 L 844 843 L 844 835 L 842 832 L 846 828 L 846 817 L 848 813 L 848 762 L 845 758 L 835 760 L 833 766 L 829 767 L 833 770 L 831 772 L 831 777 L 829 778 L 827 787 L 825 788 L 825 791 L 821 797 L 804 814 L 800 813 L 796 815 L 799 817 L 791 822 L 783 824 L 782 826 L 768 828 L 766 830 L 735 831 L 730 829 L 725 832 L 721 830 L 718 832 L 711 830 L 708 832 L 666 832 L 665 831 L 667 829 L 662 826 L 662 823 L 666 821 L 664 818 L 668 817 L 670 814 L 668 812 L 672 811 L 676 800 L 680 797 L 682 790 L 688 783 L 688 780 L 690 779 L 688 776 L 694 773 L 694 770 L 698 765 L 698 761 L 702 759 L 702 756 L 708 748 L 706 745 L 710 745 L 712 738 L 716 735 L 714 731 L 718 731 L 718 728 L 724 721 L 724 718 L 726 717 L 724 713 L 728 713 L 730 710 L 728 708 L 729 706 L 732 707 L 732 704 L 736 699 L 734 696 L 738 695 L 739 693 L 741 694 L 740 690 L 742 687 L 740 685 L 744 685 L 746 680 L 749 680 L 748 676 L 752 671 L 750 668 L 754 667 L 764 648 L 767 648 L 766 645 L 768 641 L 766 640 L 772 637 L 772 634 L 778 625 L 776 622 L 780 621 L 786 608 L 792 600 L 790 598 L 794 597 L 796 590 L 800 587 L 804 576 L 808 572 L 812 562 L 816 558 L 820 548 L 828 537 L 830 530 L 836 523 L 836 520 L 844 507 L 844 500 L 840 498 L 831 500 L 790 499 L 779 500 L 777 502 L 768 502 L 767 501 L 771 499 L 759 500 L 757 502 L 755 500 L 728 500 L 727 497 L 726 502 L 719 502 L 718 500 L 701 500 L 699 502 L 695 498 L 678 500 L 677 499 L 679 497 L 675 500 L 668 499 L 659 501 L 652 499 L 649 502 L 645 502 L 644 500 L 623 500 L 621 498 L 618 500 Z M 659 831 L 661 827 L 664 831 Z M 769 525 L 772 526 L 770 530 L 767 528 Z M 686 500 L 696 501 L 687 502 Z M 537 496 L 535 497 L 536 499 L 533 500 L 532 498 L 521 498 L 519 496 L 508 496 L 506 494 L 487 494 L 485 492 L 451 494 L 449 496 L 443 496 L 442 498 L 436 498 L 436 495 L 434 494 L 432 500 L 426 500 L 420 504 L 417 504 L 416 506 L 412 504 L 411 508 L 402 512 L 396 518 L 393 518 L 386 526 L 382 526 L 381 531 L 377 534 L 375 541 L 371 544 L 371 547 L 367 552 L 367 557 L 365 558 L 365 562 L 361 569 L 359 594 L 361 596 L 361 608 L 363 610 L 363 615 L 365 616 L 365 621 L 371 628 L 375 639 L 379 642 L 387 654 L 403 669 L 408 671 L 419 681 L 426 683 L 430 688 L 430 692 L 432 691 L 435 693 L 438 691 L 439 693 L 442 693 L 465 709 L 468 709 L 475 715 L 478 715 L 481 718 L 480 720 L 484 719 L 487 723 L 490 723 L 493 727 L 497 728 L 494 732 L 498 729 L 501 732 L 500 734 L 504 738 L 506 737 L 517 748 L 517 751 L 519 752 L 518 754 L 523 758 L 523 762 L 527 768 L 527 775 L 531 776 L 529 777 L 529 784 L 528 785 L 526 783 L 525 785 L 526 792 L 528 790 L 529 791 L 527 805 L 525 806 L 523 814 L 514 826 L 511 826 L 510 828 L 508 827 L 509 829 L 504 834 L 500 833 L 500 836 L 487 840 L 486 842 L 477 842 L 475 844 L 458 844 L 456 842 L 445 842 L 443 840 L 431 838 L 429 831 L 429 835 L 427 836 L 422 833 L 423 831 L 419 832 L 419 829 L 415 830 L 392 807 L 392 804 L 386 797 L 387 793 L 382 787 L 380 776 L 378 774 L 378 770 L 376 769 L 376 762 L 366 754 L 366 757 L 359 762 L 359 769 L 357 771 L 358 779 L 356 782 L 359 783 L 361 830 L 363 832 L 363 840 L 365 845 L 368 845 L 371 848 L 370 852 L 373 849 L 375 851 L 380 852 L 378 854 L 380 852 L 386 853 L 391 857 L 397 857 L 399 859 L 397 861 L 398 863 L 400 862 L 400 859 L 404 859 L 405 861 L 414 860 L 416 863 L 434 866 L 430 868 L 434 869 L 436 868 L 436 865 L 439 867 L 481 867 L 483 865 L 493 865 L 501 861 L 513 859 L 517 855 L 524 853 L 525 849 L 528 851 L 531 847 L 534 847 L 537 841 L 541 841 L 554 829 L 554 826 L 568 805 L 568 800 L 572 794 L 570 787 L 574 787 L 574 780 L 572 779 L 573 775 L 576 777 L 576 753 L 572 750 L 574 742 L 572 741 L 570 728 L 568 727 L 562 712 L 556 705 L 557 701 L 555 702 L 534 681 L 535 679 L 533 680 L 524 673 L 525 671 L 523 672 L 522 670 L 519 670 L 516 667 L 517 665 L 515 666 L 514 664 L 507 662 L 504 658 L 501 658 L 498 654 L 495 654 L 488 648 L 485 650 L 484 646 L 478 642 L 475 642 L 458 630 L 455 630 L 452 626 L 449 626 L 436 614 L 431 612 L 428 606 L 418 595 L 414 584 L 412 583 L 412 575 L 410 573 L 410 561 L 412 559 L 414 546 L 420 536 L 429 527 L 434 525 L 437 521 L 443 521 L 447 517 L 454 517 L 455 515 L 482 515 L 483 517 L 494 519 L 495 521 L 499 521 L 510 527 L 515 532 L 514 534 L 516 533 L 523 540 L 531 552 L 530 554 L 528 553 L 526 555 L 526 560 L 528 556 L 530 558 L 530 562 L 532 563 L 530 565 L 532 568 L 533 567 L 531 565 L 534 563 L 539 583 L 546 588 L 554 587 L 554 575 L 556 573 L 556 563 L 554 561 L 555 509 L 550 502 L 538 500 Z M 931 346 L 931 349 L 927 349 L 929 351 L 923 355 L 923 359 L 921 361 L 921 367 L 917 375 L 917 383 L 915 385 L 913 399 L 911 400 L 911 407 L 909 408 L 907 421 L 905 422 L 905 429 L 903 430 L 903 435 L 899 443 L 899 450 L 895 456 L 893 469 L 891 470 L 887 483 L 885 484 L 885 489 L 883 490 L 881 499 L 879 500 L 872 516 L 870 513 L 871 518 L 866 526 L 864 527 L 864 523 L 861 523 L 862 530 L 865 530 L 865 533 L 861 536 L 887 536 L 888 533 L 916 533 L 918 536 L 934 535 L 936 537 L 946 537 L 946 540 L 954 539 L 956 541 L 964 541 L 965 543 L 971 544 L 966 546 L 978 545 L 980 550 L 982 547 L 986 547 L 1000 553 L 1006 553 L 1012 557 L 1024 559 L 1025 561 L 1039 563 L 1040 568 L 1045 566 L 1045 563 L 1042 562 L 1046 561 L 1047 559 L 1051 560 L 1050 558 L 1054 554 L 1050 544 L 1047 546 L 1046 542 L 1040 538 L 1015 528 L 1005 526 L 1001 523 L 1001 520 L 999 521 L 1000 523 L 997 524 L 996 522 L 973 518 L 965 514 L 962 515 L 952 514 L 950 512 L 931 512 L 929 510 L 913 509 L 917 508 L 917 505 L 920 505 L 921 503 L 928 501 L 933 497 L 952 489 L 953 487 L 956 487 L 959 483 L 962 483 L 971 477 L 982 475 L 983 473 L 1008 473 L 1010 475 L 1028 477 L 1030 479 L 1042 481 L 1043 483 L 1049 483 L 1057 487 L 1071 487 L 1074 485 L 1077 475 L 1070 468 L 1049 460 L 1049 457 L 1041 458 L 1040 456 L 1032 456 L 1022 452 L 1015 452 L 1010 448 L 1015 447 L 1016 450 L 1019 448 L 1021 450 L 1016 446 L 1025 441 L 1030 441 L 1035 437 L 1040 437 L 1045 433 L 1050 433 L 1052 431 L 1056 431 L 1057 429 L 1068 427 L 1069 425 L 1078 423 L 1079 421 L 1090 417 L 1099 409 L 1102 409 L 1120 391 L 1135 371 L 1137 372 L 1136 370 L 1140 363 L 1130 360 L 1128 362 L 1116 362 L 1114 364 L 1108 364 L 1106 366 L 1099 366 L 1098 368 L 1086 370 L 1080 376 L 1073 378 L 1064 386 L 1062 385 L 1063 387 L 1060 388 L 1058 392 L 1055 392 L 1046 402 L 1033 410 L 1028 416 L 1018 422 L 1016 421 L 1017 423 L 1014 426 L 1010 425 L 1010 418 L 1014 413 L 1014 408 L 1016 407 L 1016 402 L 1018 400 L 1018 394 L 1020 393 L 1020 388 L 1022 386 L 1022 370 L 1020 369 L 1021 365 L 1019 363 L 1009 364 L 1001 372 L 1001 377 L 999 378 L 997 387 L 995 388 L 991 407 L 989 408 L 989 412 L 985 418 L 983 427 L 975 440 L 975 443 L 960 458 L 957 458 L 948 466 L 941 468 L 938 472 L 935 472 L 928 478 L 925 478 L 914 486 L 911 486 L 912 478 L 914 477 L 915 480 L 919 474 L 919 469 L 918 473 L 915 473 L 916 466 L 919 466 L 918 460 L 921 460 L 920 454 L 922 452 L 922 448 L 924 447 L 924 442 L 926 441 L 930 424 L 934 418 L 934 412 L 936 411 L 936 406 L 938 405 L 938 400 L 940 399 L 942 386 L 944 385 L 944 379 L 948 370 L 948 353 L 941 344 Z M 246 344 L 237 344 L 229 350 L 227 355 L 229 360 L 228 374 L 231 374 L 231 379 L 233 381 L 232 390 L 234 389 L 235 393 L 237 394 L 237 401 L 239 402 L 243 419 L 245 420 L 247 430 L 251 436 L 251 441 L 253 442 L 253 446 L 255 448 L 255 453 L 257 454 L 254 456 L 259 458 L 257 465 L 260 465 L 263 469 L 261 476 L 256 480 L 253 480 L 250 477 L 249 472 L 245 474 L 244 472 L 241 472 L 232 465 L 233 463 L 229 464 L 228 462 L 225 462 L 225 456 L 223 457 L 224 459 L 221 460 L 216 454 L 213 454 L 210 451 L 210 448 L 204 443 L 204 440 L 200 435 L 199 427 L 196 425 L 194 416 L 192 415 L 188 405 L 186 392 L 184 391 L 184 386 L 182 385 L 182 378 L 178 375 L 178 370 L 174 364 L 171 363 L 171 360 L 167 362 L 161 360 L 161 363 L 157 366 L 156 375 L 157 387 L 159 388 L 159 394 L 163 401 L 159 404 L 165 406 L 165 411 L 167 412 L 169 421 L 171 422 L 170 428 L 169 425 L 166 428 L 155 422 L 136 404 L 131 402 L 120 390 L 115 388 L 111 383 L 109 384 L 97 374 L 93 374 L 84 368 L 79 368 L 78 366 L 72 366 L 63 362 L 52 362 L 50 360 L 45 362 L 43 360 L 41 361 L 41 366 L 45 370 L 47 378 L 53 384 L 53 387 L 58 393 L 61 394 L 62 400 L 64 399 L 65 401 L 68 401 L 69 404 L 78 411 L 78 415 L 82 413 L 89 419 L 92 419 L 95 422 L 95 425 L 101 423 L 107 427 L 117 429 L 120 432 L 120 435 L 123 433 L 126 434 L 126 437 L 134 435 L 135 437 L 140 437 L 144 442 L 148 441 L 150 446 L 155 446 L 154 448 L 149 449 L 148 452 L 150 452 L 150 454 L 134 456 L 132 458 L 127 458 L 126 460 L 121 460 L 115 464 L 111 464 L 110 466 L 105 466 L 105 469 L 101 474 L 101 479 L 103 480 L 106 488 L 107 485 L 109 487 L 115 487 L 117 485 L 122 485 L 123 483 L 130 483 L 131 481 L 144 479 L 145 477 L 152 477 L 153 475 L 160 475 L 161 473 L 174 473 L 175 471 L 179 471 L 181 473 L 194 473 L 195 475 L 200 475 L 201 477 L 210 479 L 211 481 L 230 489 L 237 495 L 252 501 L 256 504 L 256 507 L 259 505 L 261 506 L 260 512 L 236 513 L 236 509 L 233 514 L 207 516 L 206 518 L 189 520 L 187 522 L 181 522 L 180 524 L 173 524 L 172 526 L 167 526 L 164 524 L 164 527 L 160 530 L 155 530 L 154 532 L 145 534 L 144 536 L 141 536 L 140 538 L 137 538 L 131 542 L 127 549 L 126 558 L 137 561 L 142 565 L 147 565 L 149 563 L 153 564 L 153 561 L 166 555 L 176 553 L 177 551 L 182 551 L 183 549 L 196 547 L 197 545 L 205 545 L 211 541 L 230 539 L 232 537 L 240 537 L 241 535 L 254 535 L 255 533 L 277 533 L 277 535 L 272 536 L 278 537 L 280 536 L 280 533 L 284 535 L 288 533 L 289 535 L 302 535 L 303 537 L 318 539 L 320 541 L 324 541 L 325 543 L 334 542 L 336 538 L 334 534 L 322 523 L 322 520 L 318 519 L 314 513 L 315 511 L 313 507 L 311 510 L 308 507 L 308 504 L 305 504 L 298 497 L 298 492 L 294 489 L 294 484 L 290 479 L 291 473 L 289 474 L 286 471 L 284 458 L 280 452 L 280 447 L 274 432 L 274 425 L 270 419 L 268 404 L 266 403 L 266 398 L 264 397 L 264 390 L 262 389 L 263 375 L 261 376 L 260 372 L 258 371 L 258 364 L 256 363 L 256 356 L 254 355 L 254 352 Z M 261 508 L 264 507 L 266 509 L 262 510 Z M 262 483 L 265 482 L 268 485 L 265 486 Z M 264 475 L 265 480 L 262 481 L 261 480 Z M 320 333 L 321 337 L 317 338 L 313 344 L 313 373 L 315 374 L 315 384 L 317 386 L 319 403 L 321 405 L 321 409 L 323 410 L 323 417 L 325 418 L 325 425 L 327 426 L 329 439 L 333 444 L 333 449 L 337 455 L 337 460 L 341 466 L 343 475 L 345 476 L 344 482 L 346 479 L 347 483 L 352 489 L 355 487 L 359 488 L 363 486 L 359 480 L 362 478 L 362 475 L 358 474 L 356 454 L 354 453 L 354 441 L 350 433 L 348 407 L 346 405 L 346 395 L 344 393 L 344 375 L 342 373 L 340 343 L 335 337 L 325 336 Z M 845 328 L 843 330 L 846 332 L 839 341 L 839 347 L 837 349 L 835 379 L 833 381 L 833 400 L 831 402 L 831 415 L 829 417 L 827 445 L 825 447 L 825 459 L 830 467 L 830 470 L 831 467 L 829 465 L 831 463 L 836 463 L 840 457 L 842 448 L 844 447 L 844 442 L 846 441 L 846 436 L 848 435 L 848 430 L 850 429 L 850 424 L 852 423 L 852 418 L 854 416 L 854 410 L 856 409 L 858 394 L 860 393 L 860 387 L 862 384 L 862 370 L 864 368 L 864 340 L 859 333 L 846 332 Z M 418 271 L 419 275 L 416 278 L 414 275 L 413 291 L 417 294 L 419 299 L 424 301 L 429 306 L 428 308 L 430 307 L 434 309 L 437 313 L 440 313 L 449 321 L 452 321 L 457 326 L 456 328 L 460 327 L 463 331 L 466 331 L 466 337 L 469 335 L 474 337 L 493 355 L 496 355 L 507 367 L 513 370 L 512 372 L 510 371 L 512 374 L 514 371 L 515 374 L 518 375 L 539 396 L 538 398 L 540 397 L 545 402 L 547 407 L 557 416 L 559 421 L 565 427 L 570 427 L 570 423 L 573 423 L 568 415 L 569 411 L 564 409 L 564 406 L 558 399 L 558 393 L 554 392 L 546 383 L 546 380 L 538 373 L 536 368 L 520 351 L 521 349 L 519 350 L 511 344 L 506 337 L 507 335 L 504 336 L 501 332 L 499 332 L 480 312 L 471 306 L 464 298 L 461 298 L 460 294 L 457 294 L 443 280 L 435 278 L 435 275 L 433 276 L 427 273 L 420 274 Z M 764 274 L 753 271 L 757 269 L 752 268 L 750 274 L 746 274 L 742 278 L 739 278 L 733 282 L 728 288 L 723 290 L 710 302 L 708 301 L 708 304 L 706 304 L 692 318 L 690 318 L 687 323 L 651 358 L 649 363 L 645 365 L 645 367 L 633 380 L 631 385 L 627 388 L 627 391 L 621 393 L 621 399 L 617 402 L 611 413 L 606 415 L 609 417 L 607 424 L 610 427 L 615 424 L 619 425 L 620 418 L 626 413 L 626 411 L 632 407 L 634 402 L 675 361 L 678 361 L 685 353 L 688 353 L 698 343 L 701 345 L 702 340 L 707 335 L 726 323 L 729 319 L 732 319 L 737 313 L 740 313 L 749 305 L 755 303 L 763 295 L 765 296 L 764 294 L 768 289 L 768 280 Z M 595 40 L 587 40 L 587 44 L 579 57 L 575 57 L 579 60 L 575 67 L 575 71 L 573 72 L 573 77 L 571 78 L 571 84 L 569 86 L 569 124 L 571 127 L 573 144 L 575 146 L 575 153 L 577 155 L 579 191 L 577 192 L 572 187 L 572 184 L 568 183 L 569 179 L 567 180 L 560 173 L 562 171 L 561 168 L 557 168 L 540 150 L 537 150 L 534 147 L 537 146 L 535 143 L 533 146 L 530 145 L 531 143 L 529 141 L 527 144 L 522 143 L 517 151 L 512 153 L 515 155 L 515 160 L 521 166 L 520 168 L 522 167 L 529 174 L 526 177 L 527 180 L 529 181 L 534 179 L 539 185 L 544 187 L 559 204 L 557 208 L 561 208 L 567 214 L 567 217 L 571 222 L 571 227 L 573 228 L 577 238 L 577 263 L 579 267 L 577 304 L 576 305 L 570 301 L 572 297 L 569 297 L 564 293 L 564 290 L 560 287 L 556 281 L 556 278 L 552 275 L 553 273 L 551 274 L 544 267 L 544 264 L 540 261 L 538 256 L 512 230 L 507 228 L 504 223 L 498 219 L 499 217 L 497 218 L 492 213 L 493 211 L 489 208 L 486 209 L 481 206 L 473 206 L 465 212 L 465 223 L 469 226 L 469 229 L 477 236 L 478 239 L 502 257 L 523 278 L 522 280 L 524 279 L 527 282 L 526 284 L 528 283 L 533 288 L 533 290 L 547 304 L 544 306 L 547 308 L 546 306 L 548 305 L 559 321 L 563 324 L 563 327 L 569 336 L 568 340 L 571 340 L 573 349 L 575 350 L 575 362 L 577 364 L 577 396 L 575 406 L 579 407 L 581 423 L 583 424 L 583 429 L 586 432 L 592 429 L 594 418 L 596 417 L 596 405 L 598 403 L 598 380 L 600 378 L 600 359 L 602 357 L 602 350 L 604 349 L 604 344 L 606 343 L 610 332 L 616 325 L 616 322 L 620 319 L 620 316 L 626 311 L 626 308 L 632 303 L 636 296 L 653 279 L 655 280 L 654 278 L 677 255 L 682 253 L 689 245 L 694 243 L 702 232 L 708 227 L 708 224 L 714 219 L 712 214 L 702 205 L 702 203 L 699 206 L 686 211 L 684 214 L 681 214 L 676 220 L 670 220 L 670 224 L 637 258 L 625 275 L 621 278 L 611 295 L 605 301 L 603 298 L 601 299 L 604 303 L 599 308 L 598 307 L 598 298 L 600 296 L 598 293 L 598 285 L 600 283 L 598 278 L 598 267 L 600 264 L 598 261 L 598 254 L 600 252 L 600 237 L 603 232 L 606 232 L 604 226 L 616 208 L 649 175 L 651 175 L 655 169 L 659 168 L 658 166 L 664 161 L 664 151 L 660 146 L 647 146 L 644 150 L 641 149 L 643 148 L 642 147 L 640 149 L 641 151 L 638 154 L 634 153 L 635 155 L 621 168 L 619 173 L 611 180 L 611 183 L 607 184 L 607 186 L 603 188 L 601 195 L 598 195 L 598 189 L 601 188 L 598 186 L 600 156 L 602 154 L 604 136 L 606 135 L 606 129 L 608 126 L 609 95 L 606 69 Z"/>
</svg>
